<svg id="Layer_1" data-name="Layer 1" xmlns="http://www.w3.org/2000/svg" viewBox="0 0 167.13 107.61"><defs><style>.cls-1,.cls-4,.cls-5{fill:#231f20;}.cls-1{stroke:#231f20;stroke-miterlimit:10;stroke-width:3px;}.cls-10,.cls-11,.cls-12,.cls-13,.cls-2,.cls-9{fill:#00aeef;}.cls-3{fill:#fff;}.cls-4{font-size:76.19px;letter-spacing:0.06em;}.cls-4,.cls-5{font-family:BodoniMT-BoldItalic, Bodoni MT;font-weight:700;font-style:italic;}.cls-5{font-size:11.53px;letter-spacing:0.06em;}.cls-6{letter-spacing:0.09em;}.cls-7{letter-spacing:0.03em;}.cls-8,.cls-9{letter-spacing:0.06em;}.cls-10{letter-spacing:0em;}.cls-11{letter-spacing:0.05em;}.cls-12{letter-spacing:0.05em;}.cls-13{letter-spacing:0.08em;}</style></defs><title>Untitled-1</title><path class="cls-1" d="M559.23,198.92a26.59,26.59,0,0,0,.68-3.89H541.43l-2.92,3.89H555.2a22.92,22.92,0,1,1-7.68-24.45h5.65a26.8,26.8,0,1,0,6.06,24.45Z" transform="translate(-447.7 -152.67)"/><path class="cls-2" d="M529.22,191.31a4.82,4.82,0,1,0,5.68,7.74l18.79-19.2Z" transform="translate(-447.7 -152.67)"/><circle class="cls-3" cx="84.65" cy="42.08" r="2.08"/><text class="cls-4" transform="translate(9.73 63.44)">E</text><text class="cls-4" transform="translate(98.24 63.04)">T</text><text class="cls-5" transform="translate(8.86 81.3)">Empl<tspan class="cls-6" x="31.76" y="0">o</tspan><tspan class="cls-7" x="39.05" y="0">y</tspan><tspan class="cls-8" x="45.61" y="0">ee </tspan><tspan class="cls-9" x="61.95" y="0">Goal</tspan><tspan x="90.48" y="0"> </tspan><tspan class="cls-10" x="94.05" y="0">T</tspan><tspan class="cls-11" x="102.08" y="0">r</tspan><tspan class="cls-2" x="108.23" y="0">a</tspan><tspan class="cls-12" x="115.21" y="0">c</tspan><tspan class="cls-13" x="121.49" y="0">k</tspan><tspan class="cls-9" x="128.68" y="0">er</tspan></text></svg>