<?xml version="1.0" ?><!DOCTYPE svg  PUBLIC '-//W3C//DTD SVG 1.1//EN'  'http://www.w3.org/Graphics/SVG/1.1/DTD/svg11.dtd'><svg enable-background="new 0 0 128 128" height="128px" id="icon" version="1.1" viewBox="0 0 128 128" width="128px" xml:space="preserve" xmlns="http://www.w3.org/2000/svg" xmlns:xlink="http://www.w3.org/1999/xlink"><path d="M117.956,50.357  c0.562-0.793-16.281-26.647-53.753-26.924c-23.213-0.172-43.401,9.86-53.749,24.379c-0.565,0.794-0.565,1.753,0,2.545  C20.8,64.875,40.99,74.732,64.203,74.732C87.413,74.736,107.604,64.879,117.956,50.357z" fill="none" stroke="#3262F9" stroke-miterlimit="10" stroke-width="2"/><g><path d="M4.676,67.268c-0.533,0.724-1.323,1.043-1.769,0.715l0,0c-0.444-0.326-0.375-1.178,0.157-1.9l8.743-11.88   c0.533-0.724,1.324-1.043,1.769-0.716l0,0c0.444,0.327,0.375,1.177-0.158,1.901L4.676,67.268z" fill="#3262F9"/><path d="M21.497,79.798c-0.469,0.767-1.229,1.152-1.701,0.863l0,0c-0.47-0.287-0.475-1.142-0.006-1.907   l7.695-12.584c0.469-0.768,1.23-1.152,1.702-0.863l0,0c0.471,0.287,0.475,1.141,0.005,1.906L21.497,79.798z" fill="#3262F9"/><path d="M41.818,87.674c-0.347,0.83-1.04,1.326-1.55,1.112l0,0c-0.508-0.213-0.642-1.056-0.295-1.884l5.691-13.608   c0.348-0.83,1.04-1.326,1.551-1.112l0,0c0.509,0.213,0.643,1.055,0.294,1.883L41.818,87.674z" fill="#3262F9"/></g><path d="M64.764,90.404c-0.029,0.897-0.5,1.609-1.054,1.591l0,0c-0.55-0.019-0.976-0.759-0.947-1.655l0.476-14.742  c0.03-0.898,0.5-1.609,1.053-1.593l0,0c0.551,0.019,0.976,0.759,0.944,1.656L64.764,90.404z" fill="#3262F9"/><g><path d="M122.893,69.518c0.533,0.724,1.323,1.043,1.77,0.715l0,0c0.443-0.326,0.375-1.178-0.157-1.9l-8.741-11.88   c-0.533-0.724-1.324-1.043-1.771-0.716l0,0c-0.444,0.327-0.375,1.177,0.157,1.901L122.893,69.518z" fill="#3262F9"/><path d="M106.07,82.048c0.47,0.767,1.229,1.152,1.701,0.863l0,0c0.471-0.287,0.475-1.142,0.006-1.907l-7.694-12.584   c-0.47-0.768-1.229-1.152-1.702-0.863l0,0c-0.471,0.287-0.475,1.141-0.004,1.906L106.07,82.048z" fill="#3262F9"/><path d="M85.424,88.023c0.348,0.83,1.039,1.326,1.551,1.111l0,0c0.508-0.213,0.642-1.056,0.295-1.884l-5.69-13.608   c-0.349-0.83-1.04-1.326-1.552-1.113l0,0c-0.508,0.214-0.643,1.057-0.293,1.885L85.424,88.023z" fill="#3262F9"/></g></svg>