<?xml version="1.0" ?><svg height="20.000002" id="svg8" version="1.1" viewBox="0 0 5.2916671 5.2916673" width="20.000002" xmlns="http://www.w3.org/2000/svg" xmlns:cc="http://creativecommons.org/ns#" xmlns:dc="http://purl.org/dc/elements/1.1/" xmlns:rdf="http://www.w3.org/1999/02/22-rdf-syntax-ns#" xmlns:svg="http://www.w3.org/2000/svg"><defs id="defs2"/><g id="layer9" transform="translate(-34.925001,-17.4625)"><g id="FLAT-8"><path d="m 37.570834,17.4625 c -1.458121,0 -2.645833,1.187712 -2.645833,2.645834 0,1.458157 1.187717,2.645833 2.645833,2.645833 1.458111,0 2.645834,-1.187675 2.645834,-2.645833 0,-1.458123 -1.187718,-2.645834 -2.645834,-2.645834 z" id="path337" style="color:#000000;font-style:normal;font-variant:normal;font-weight:normal;font-stretch:normal;font-size:medium;line-height:normal;font-family:sans-serif;font-variant-ligatures:normal;font-variant-position:normal;font-variant-caps:normal;font-variant-numeric:normal;font-variant-alternates:normal;font-variant-east-asian:normal;font-feature-settings:normal;font-variation-settings:normal;text-indent:0;text-align:start;text-decoration:none;text-decoration-line:none;text-decoration-style:solid;text-decoration-color:#000000;letter-spacing:normal;word-spacing:normal;text-transform:none;writing-mode:lr-tb;direction:ltr;text-orientation:mixed;dominant-baseline:auto;baseline-shift:baseline;text-anchor:start;white-space:normal;shape-padding:0;shape-margin:0;inline-size:0;clip-rule:nonzero;display:inline;overflow:visible;visibility:visible;isolation:auto;mix-blend-mode:normal;color-interpolation:sRGB;color-interpolation-filters:linearRGB;solid-color:#000000;solid-opacity:1;vector-effect:none;fill:#82bbfb;fill-opacity:1;fill-rule:nonzero;stroke:none;stroke-width:0.529169;stroke-linecap:round;stroke-linejoin:round;stroke-miterlimit:4;stroke-dasharray:none;stroke-dashoffset:0;stroke-opacity:1;color-rendering:auto;image-rendering:auto;shape-rendering:auto;text-rendering:auto;enable-background:accumulate;stop-color:#000000"/><path d="m 37.571448,21.13799 c -0.172015,0.003 -0.277285,-0.13961 -0.277741,-0.28024 v -0.84424 c 0.0043,-0.1832 0.141379,-0.27573 0.280196,-0.28017 0.201016,0.008 0.283242,0.1741 0.277744,0.28268 v 0.83936 c -5e-6,0.17975 -0.14622,0.28348 -0.280194,0.28266 z m -0.208003,-1.54778 c -0.0571,-0.0571 -0.08565,-0.1281 -0.08565,-0.2129 0.0057,-0.17529 0.138318,-0.30097 0.29365,-0.29849 0.208672,0.006 0.289046,0.1582 0.292432,0.30095 -0.003,0.19029 -0.145676,0.29402 -0.292432,0.29485 -0.08239,0 -0.15172,-0.0281 -0.208003,-0.0844 z" id="path340" style="font-style:normal;font-variant:normal;font-weight:normal;font-stretch:normal;font-size:2.50582px;line-height:1.25;font-family:'Anja Eliane accent';-inkscape-font-specification:'Anja Eliane accent, Normal';font-variant-ligatures:normal;font-variant-caps:normal;font-variant-numeric:normal;font-variant-east-asian:normal;fill:#007ff9;fill-opacity:1;stroke:none;stroke-width:0.264583"/><path d="m 151.47852,79.158203 a 17.202391,32.202391 69.881832 0 1 -3.5625,1.435547 17.202391,32.202391 69.881832 0 1 -12.34571,3.050781 C 137.31089,85.11131 139.55277,86 142,86 c 4.40646,0 8.15112,-2.874184 9.47852,-6.841797 z" id="path1439" style="color:#000000;font-style:normal;font-variant:normal;font-weight:normal;font-stretch:normal;font-size:medium;line-height:normal;font-family:sans-serif;font-variant-ligatures:normal;font-variant-position:normal;font-variant-caps:normal;font-variant-numeric:normal;font-variant-alternates:normal;font-variant-east-asian:normal;font-feature-settings:normal;font-variation-settings:normal;text-indent:0;text-align:start;text-decoration:none;text-decoration-line:none;text-decoration-style:solid;text-decoration-color:#000000;letter-spacing:normal;word-spacing:normal;text-transform:none;writing-mode:lr-tb;direction:ltr;text-orientation:mixed;dominant-baseline:auto;baseline-shift:baseline;text-anchor:start;white-space:normal;shape-padding:0;shape-margin:0;inline-size:0;clip-rule:nonzero;display:inline;overflow:visible;visibility:visible;isolation:auto;mix-blend-mode:normal;color-interpolation:sRGB;color-interpolation-filters:linearRGB;solid-color:#000000;solid-opacity:1;vector-effect:none;fill:#65a3fc;fill-opacity:1;fill-rule:nonzero;stroke:none;stroke-width:2.00001;stroke-linecap:round;stroke-linejoin:round;stroke-miterlimit:4;stroke-dasharray:none;stroke-dashoffset:0;stroke-opacity:1;color-rendering:auto;image-rendering:auto;shape-rendering:auto;text-rendering:auto;enable-background:accumulate;stop-color:#000000" transform="scale(0.26458334)"/></g></g></svg>