<?xml version="1.0" ?><svg viewBox="0 0 60 60" xmlns="http://www.w3.org/2000/svg"><rect fill="#fff" height="60" rx="10" width="60"/><path d="M30,8A22,22,0,1,0,52,30,22,22,0,0,0,30,8Zm0,38A16,16,0,1,1,46,30,16,16,0,0,1,30,46Z" fill="#f2c4bb"/><path d="M30,53.5A23.5,23.5,0,1,1,53.5,30,23.527,23.527,0,0,1,30,53.5Zm0-44A20.5,20.5,0,1,0,50.5,30,20.523,20.523,0,0,0,30,9.5Zm0,38A17.5,17.5,0,1,1,47.5,30,17.521,17.521,0,0,1,30,47.5Zm0-32A14.5,14.5,0,1,0,44.5,30,14.517,14.517,0,0,0,30,15.5Z" fill="#f28080"/><path d="M30,15.5a1.5,1.5,0,0,1,0-3,1.5,1.5,0,0,0,0-3,1.5,1.5,0,0,1,0-3,4.5,4.5,0,0,1,0,9Z" fill="#ffafc5"/><path d="M30,14A16,16,0,1,0,46,30,16,16,0,0,0,30,14Zm0,26A10,10,0,1,1,40,30,10,10,0,0,1,30,40Z" fill="#eff28d"/><path d="M30,47.5A17.5,17.5,0,1,1,47.5,30,17.521,17.521,0,0,1,30,47.5Zm0-32A14.5,14.5,0,1,0,44.5,30,14.517,14.517,0,0,0,30,15.5Zm0,26A11.5,11.5,0,1,1,41.5,30,11.513,11.513,0,0,1,30,41.5Zm0-20A8.5,8.5,0,1,0,38.5,30,8.51,8.51,0,0,0,30,21.5Z" fill="#f2bf80"/><path d="M30,21.5a1.5,1.5,0,0,1,0-3,1.5,1.5,0,0,0,0-3,1.5,1.5,0,0,1,0-3,4.5,4.5,0,0,1,0,9Z" fill="#f2bf80"/><path d="M30,20A10,10,0,1,0,40,30,10,10,0,0,0,30,20Zm0,14a4,4,0,1,1,4-4A4,4,0,0,1,30,34Z" fill="#c1f7fd"/><path d="M30,41.5A11.5,11.5,0,1,1,41.5,30,11.513,11.513,0,0,1,30,41.5Zm0-20A8.5,8.5,0,1,0,38.5,30,8.51,8.51,0,0,0,30,21.5Zm0,14A5.5,5.5,0,1,1,35.5,30,5.506,5.506,0,0,1,30,35.5Zm0-8A2.5,2.5,0,1,0,32.5,30,2.5,2.5,0,0,0,30,27.5Z" fill="#7bcdd1"/><path d="M30,27.5a1.5,1.5,0,0,1,0-3,1.5,1.5,0,0,0,0-3,1.5,1.5,0,0,1,0-3,4.5,4.5,0,0,1,0,9Z" fill="#7bcdd1"/><path d="M8,31.5A1.5,1.5,0,0,1,6.5,30,23.527,23.527,0,0,1,30,6.5a1.5,1.5,0,0,1,0,3A20.523,20.523,0,0,0,9.5,30,1.5,1.5,0,0,1,8,31.5Z" fill="#ffafc5"/></svg>