<?xml version="1.0" ?><svg viewBox="0 0 64 64" xmlns="http://www.w3.org/2000/svg"><g id="Effective_employees"><path d="M37.4387,45.1386a1.1737,1.1737,0,0,1-.71-1.0786,1.1966,1.1966,0,0,1,.3718-.8779c.0725-.0691.1419-.1372.1939-.192a7.3474,7.3474,0,0,0,.9675-1.2707,7.3009,7.3009,0,0,0-7.637-10.9231,7.134,7.134,0,0,0-5.758,5.5937A7.3,7.3,0,0,0,26.88,43.1668a1.2386,1.2386,0,0,1,.3862.8793v.0061a1.1751,1.1751,0,0,1-.71,1.09,12.0152,12.0152,0,0,0-6.46,6.4014,15.2866,15.2866,0,0,0-1.274,6.2953v1.56A2.547,2.547,0,0,0,21.37,61.9459h21.261a2.5468,2.5468,0,0,0,2.5466-2.5468V57.8234a15.2521,15.2521,0,0,0-1.2761-6.292A12.0124,12.0124,0,0,0,37.4387,45.1386Z"/><path d="M23.66,43.5729a11.8205,11.8205,0,0,0-3.2026-1.9521,1.1744,1.1744,0,0,1-.71-1.0786,1.1968,1.1968,0,0,1,.3721-.878c.0722-.0692.1418-.1372.1938-.1921a7.341,7.341,0,0,0,.9673-1.27,7.3006,7.3006,0,0,0-7.6367-10.9232,7.1338,7.1338,0,0,0-5.7581,5.5937,7.3007,7.3007,0,0,0,2.013,6.7768,1.2369,1.2369,0,0,1,.3862.8792v.0063a1.1747,1.1747,0,0,1-.71,1.09,12.0156,12.0156,0,0,0-6.46,6.4013,15.2875,15.2875,0,0,0-1.2742,6.2953l0,1.5607a2.5465,2.5465,0,0,0,2.5466,2.5466H16.1228v-.5893a17.8839,17.8839,0,0,1,1.5127-7.4058A14.74,14.74,0,0,1,23.66,43.5729Z"/><path d="M60.8821,48.0135A12.0119,12.0119,0,0,0,54.42,41.6208a1.1745,1.1745,0,0,1-.71-1.0786,1.1973,1.1973,0,0,1,.3719-.878c.0725-.0692.1421-.1372.1938-.1921a7.3327,7.3327,0,0,0,.9676-1.27,7.3007,7.3007,0,0,0-7.6368-10.9232,7.1333,7.1333,0,0,0-5.758,5.5937,7.3,7.3,0,0,0,2.0129,6.7768,1.2373,1.2373,0,0,1,.3862.8792v.0063a1.1745,1.1745,0,0,1-.71,1.09,11.8293,11.8293,0,0,0-3.1953,1.9487,14.7374,14.7374,0,0,1,6.0188,6.8459,17.8408,17.8408,0,0,1,1.5161,7.405v.6043H59.6116a2.5468,2.5468,0,0,0,2.5468-2.5466V54.3056A15.25,15.25,0,0,0,60.8821,48.0135Z"/><path d="M19.5246,16.9623l2.4324.4565a1.3226,1.3226,0,0,1,1.0088.85,9.47,9.47,0,0,0,.3821.9247,1.3226,1.3226,0,0,1-.1128,1.3128l-1.3967,2.0418a.86.86,0,0,0,.1018,1.0942l1.4843,1.4844a.86.86,0,0,0,1.0943.1018l2.0417-1.3967a1.3224,1.3224,0,0,1,1.3128-.1127,9.5357,9.5357,0,0,0,.9248.382,1.3218,1.3218,0,0,1,.85,1.0088l.4565,2.4324a.86.86,0,0,0,.8457.7018H33.05a.86.86,0,0,0,.8458-.7018l.4565-2.4324a1.3222,1.3222,0,0,1,.85-1.0088,9.5216,9.5216,0,0,0,.9248-.3821,1.3224,1.3224,0,0,1,1.3127.1128l2.0418,1.3967a.8607.8607,0,0,0,1.0945-.1018L42.06,23.6425a.86.86,0,0,0,.1018-1.0942l-1.3967-2.0418a1.3224,1.3224,0,0,1-.1128-1.3127,9.482,9.482,0,0,0,.3821-.9248,1.3226,1.3226,0,0,1,1.0088-.85l2.4323-.4565a.86.86,0,0,0,.7019-.8457V14.0175a.86.86,0,0,0-.7019-.8457l-2.4323-.4564a1.3226,1.3226,0,0,1-1.0088-.85,9.4615,9.4615,0,0,0-.3821-.9248,1.3226,1.3226,0,0,1,.1128-1.3128l1.3967-2.0418A.86.86,0,0,0,42.06,6.4915L40.5757,5.0073a.86.86,0,0,0-1.0945-.1018L37.4394,6.3022a1.3222,1.3222,0,0,1-1.3127.1127,9.521,9.521,0,0,0-.9248-.382,1.3223,1.3223,0,0,1-.85-1.0088l-.4565-2.4326A.8606.8606,0,0,0,33.05,1.89H30.95a.86.86,0,0,0-.8457.7017l-.4563,2.4326a1.3229,1.3229,0,0,1-.85,1.0088,9.4857,9.4857,0,0,0-.9248.382,1.3224,1.3224,0,0,1-1.3128-.1127L24.5188,4.9055a.86.86,0,0,0-1.0943.1016L21.94,6.4914a.86.86,0,0,0-.1018,1.0944l1.3967,2.0418a1.3226,1.3226,0,0,1,.1128,1.3128,9.4615,9.4615,0,0,0-.3821.9248,1.3223,1.3223,0,0,1-1.0088.85l-2.4324.4565a.8606.8606,0,0,0-.7019.8457v2.0991A.86.86,0,0,0,19.5246,16.9623ZM32,10.183a4.884,4.884,0,1,1-4.884,4.8841A4.8842,4.8842,0,0,1,32,10.183Z"/></g></svg>