<svg viewBox="0 0 64 64" xmlns="http://www.w3.org/2000/svg"><path d="M37.439 45.139a1.174 1.174 0 0 1-.71-1.079 1.197 1.197 0 0 1 .371-.878c.073-.069.142-.137.194-.192a7.347 7.347 0 0 0 .968-1.27 7.3 7.3 0 0 0-7.637-10.924 7.134 7.134 0 0 0-5.758 5.594 7.3 7.3 0 0 0 2.013 6.777 1.239 1.239 0 0 1 .386.88v.005a1.175 1.175 0 0 1-.71 1.09 12.015 12.015 0 0 0-6.46 6.402 15.287 15.287 0 0 0-1.274 6.295v1.56a2.547 2.547 0 0 0 2.548 2.547h21.261a2.547 2.547 0 0 0 2.547-2.547v-1.576a15.252 15.252 0 0 0-1.276-6.292 12.012 12.012 0 0 0-6.463-6.392Z" fill="#613636" class="fill-000000"></path><path d="M23.66 43.573a11.82 11.82 0 0 0-3.203-1.952 1.174 1.174 0 0 1-.71-1.079 1.197 1.197 0 0 1 .372-.878 6.08 6.08 0 0 0 .194-.192 7.341 7.341 0 0 0 .968-1.27 7.3 7.3 0 0 0-7.637-10.923 7.134 7.134 0 0 0-5.758 5.594 7.3 7.3 0 0 0 2.013 6.776 1.237 1.237 0 0 1 .386.88v.006a1.175 1.175 0 0 1-.71 1.09 12.016 12.016 0 0 0-6.46 6.401 15.287 15.287 0 0 0-1.274 6.295v1.561a2.546 2.546 0 0 0 2.546 2.547h11.736v-.59a17.884 17.884 0 0 1 1.513-7.405 14.74 14.74 0 0 1 6.024-6.861ZM60.882 48.014a12.012 12.012 0 0 0-6.462-6.393 1.175 1.175 0 0 1-.71-1.079 1.197 1.197 0 0 1 .372-.878c.072-.069.142-.137.194-.192a7.333 7.333 0 0 0 .967-1.27 7.3 7.3 0 0 0-7.637-10.923 7.133 7.133 0 0 0-5.758 5.594 7.3 7.3 0 0 0 2.013 6.776 1.237 1.237 0 0 1 .387.88v.006a1.175 1.175 0 0 1-.71 1.09 11.83 11.83 0 0 0-3.196 1.949 14.737 14.737 0 0 1 6.02 6.846 17.84 17.84 0 0 1 1.515 7.404v.605h11.735a2.547 2.547 0 0 0 2.546-2.547v-1.576a15.25 15.25 0 0 0-1.276-6.292ZM19.525 16.962l2.432.457a1.323 1.323 0 0 1 1.009.85 9.47 9.47 0 0 0 .382.925 1.323 1.323 0 0 1-.113 1.312l-1.397 2.042a.86.86 0 0 0 .102 1.094l1.485 1.485a.86.86 0 0 0 1.094.102l2.042-1.397a1.322 1.322 0 0 1 1.312-.113 9.536 9.536 0 0 0 .925.382 1.322 1.322 0 0 1 .85 1.009l.457 2.432a.86.86 0 0 0 .845.702h2.1a.86.86 0 0 0 .846-.702l.456-2.432a1.322 1.322 0 0 1 .85-1.009 9.522 9.522 0 0 0 .925-.382 1.322 1.322 0 0 1 1.313.113l2.042 1.397a.86.86 0 0 0 1.094-.102l1.484-1.485a.86.86 0 0 0 .102-1.094l-1.397-2.042a1.322 1.322 0 0 1-.113-1.312 9.482 9.482 0 0 0 .382-.925 1.323 1.323 0 0 1 1.01-.85l2.432-.457a.86.86 0 0 0 .701-.845v-2.1a.86.86 0 0 0-.702-.845l-2.432-.457a1.323 1.323 0 0 1-1.009-.85 9.461 9.461 0 0 0-.382-.924 1.323 1.323 0 0 1 .113-1.313l1.397-2.042a.86.86 0 0 0-.102-1.095l-1.484-1.484a.86.86 0 0 0-1.095-.101L37.44 6.301a1.322 1.322 0 0 1-1.312.113 9.521 9.521 0 0 0-.925-.382 1.322 1.322 0 0 1-.85-1.009l-.457-2.432a.86.86 0 0 0-.845-.702h-2.1a.86.86 0 0 0-.846.702l-.456 2.432a1.323 1.323 0 0 1-.85 1.01 9.486 9.486 0 0 0-.925.381 1.322 1.322 0 0 1-1.313-.113L24.52 4.906a.86.86 0 0 0-1.094.101L21.94 6.491a.86.86 0 0 0-.102 1.095l1.397 2.042a1.323 1.323 0 0 1 .113 1.312 9.461 9.461 0 0 0-.382.925 1.322 1.322 0 0 1-1.01.85l-2.432.457a.86.86 0 0 0-.702.845v2.1a.86.86 0 0 0 .703.845ZM32 10.183a4.884 4.884 0 1 1-4.884 4.884A4.884 4.884 0 0 1 32 10.183Z" fill="#613636" class="fill-000000"></path></svg>