<?xml version="1.0" ?><svg viewBox="0 0 32 32" xmlns="http://www.w3.org/2000/svg"><defs><style>.cls-1{fill:#101820;}</style></defs><title/><g data-name="Layer 48" id="Layer_48"><path class="cls-1" d="M16,28A12,12,0,1,1,28,16,12,12,0,0,1,16,28ZM16,6A10,10,0,1,0,26,16,10,10,0,0,0,16,6Z"/><rect class="cls-1" height="7" width="2" x="15" y="24"/><rect class="cls-1" height="7" width="2" x="15" y="1"/><rect class="cls-1" height="2" width="7" x="24" y="15"/><rect class="cls-1" height="2" width="7" x="1" y="15"/><path class="cls-1" d="M16,20a4,4,0,1,1,4-4A4,4,0,0,1,16,20Zm0-6a2,2,0,1,0,2,2A2,2,0,0,0,16,14Z"/></g></svg>