<?xml version="1.0" ?><svg data-name="Layer 1" id="Layer_1" viewBox="0 0 512 512" xmlns="http://www.w3.org/2000/svg"><title/><path d="M415.86,368.51a37.19,37.19,0,0,0-5.29-3.63,55.35,55.35,0,1,0-55.3,0,37.19,37.19,0,0,0-5.29,3.63c-10.68,8.85-23.79,29-30.52,74.5-6.73-45.46-19.84-65.65-30.52-74.5a37.19,37.19,0,0,0-5.29-3.63,55.35,55.35,0,1,0-55.3,0,37.19,37.19,0,0,0-5.29,3.63c-10.68,8.85-23.79,29-30.52,74.5-6.73-45.46-19.84-65.65-30.52-74.5a37.19,37.19,0,0,0-5.29-3.63,55.35,55.35,0,1,0-55.3,0,37.19,37.19,0,0,0-5.29,3.63C83.51,379,67.43,405.17,62.6,470.5a4.35,4.35,0,0,0,4,4.66h.33a4.34,4.34,0,0,0,4.33-4c6.79-91.66,35.21-100.48,41.49-101.24a55.31,55.31,0,0,0,32.56,0c6.15.76,34.75,9.19,41.57,101.22a4.34,4.34,0,0,0,4.33,4h.33a4.86,4.86,0,0,0,1-.28,4.78,4.78,0,0,0,1,.28h.32a4.35,4.35,0,0,0,4.34-4c6.78-91.67,35.19-100.49,41.48-101.24a55.33,55.33,0,0,0,32.63,0c1.92.22,6.06,1.16,11.08,5.31,11.33,9.39,25.8,33.66,30.41,95.93a4.35,4.35,0,0,0,4.34,4h.32a4.78,4.78,0,0,0,1-.28,4.86,4.86,0,0,0,1,.28h.33a4.34,4.34,0,0,0,4.33-4c6.79-91.62,35.22-100.48,41.5-101.24a55.3,55.3,0,0,0,32.62,0c1.92.22,6.07,1.16,11.08,5.31,11.33,9.39,25.81,33.66,30.42,95.93a4.34,4.34,0,0,0,4.33,4h.33a4.35,4.35,0,0,0,4-4.66C444.57,405.18,428.5,379,415.86,368.51Zm-299-6.53a4.36,4.36,0,0,0-2-.8l-.83,0a46.65,46.65,0,1,1,30,0l-.83,0a4.2,4.2,0,0,0-1.94.8,45.28,45.28,0,0,1-24.44,0Zm126.92,0a4.36,4.36,0,0,0-2-.8l-.82,0a46.65,46.65,0,1,1,30,0l-.83,0a4.27,4.27,0,0,0-2,.8,45.21,45.21,0,0,1-24.42,0Zm126.92,0a4.27,4.27,0,0,0-2-.8l-.83,0a46.65,46.65,0,1,1,30,0l-.83,0a4.36,4.36,0,0,0-2,.8,45.21,45.21,0,0,1-24.42,0Z" style="fill:#231f20"/><path d="M128.76,195.31h9.87L159,237.78a4.35,4.35,0,0,0,7.84,0l20.42-42.47h44.36l20.42,42.47a4.35,4.35,0,0,0,7.84,0l20.42-42.47H324.7l20.42,42.47a4.35,4.35,0,0,0,7.84,0l20.41-42.47h15.12c19.15,0,40.58-19.59,40.58-45.82V82.66a45.88,45.88,0,0,0-45.83-45.83H128.76A45.87,45.87,0,0,0,82.94,82.66v66.83A45.87,45.87,0,0,0,128.76,195.31ZM91.64,82.66a37.17,37.17,0,0,1,37.12-37.13H383.24a37.18,37.18,0,0,1,37.13,37.13v66.83c0,20.9-17.14,37.12-31.88,37.12H370.64a3.15,3.15,0,0,0-.61.13,3.73,3.73,0,0,0-.95.19,3.77,3.77,0,0,0-.7.41,2.61,2.61,0,0,0-1.27,1.22,2.83,2.83,0,0,0-.39.52L349,225.85l-17.68-36.77a4.15,4.15,0,0,0-.39-.52,4.58,4.58,0,0,0-.56-.75,5.17,5.17,0,0,0-.73-.49,4.5,4.5,0,0,0-.67-.39,3.78,3.78,0,0,0-1-.2,3.86,3.86,0,0,0-.57-.12H277.6a3.15,3.15,0,0,0-.61.13,3.81,3.81,0,0,0-.95.19,3.89,3.89,0,0,0-.69.4,4.3,4.3,0,0,0-.72.48,4.58,4.58,0,0,0-.56.75,4.15,4.15,0,0,0-.39.52L256,225.85l-17.68-36.77a4.15,4.15,0,0,0-.39-.52,4.58,4.58,0,0,0-.56-.75,5.17,5.17,0,0,0-.73-.49,4.89,4.89,0,0,0-.67-.39,3.78,3.78,0,0,0-1-.2,3.61,3.61,0,0,0-.57-.12H184.56a3.87,3.87,0,0,0-.61.13,3.73,3.73,0,0,0-.95.19,4.52,4.52,0,0,0-.71.41,4,4,0,0,0-.69.47,4.36,4.36,0,0,0-.58.76,4.82,4.82,0,0,0-.38.51L163,225.85l-17.68-36.77a2.83,2.83,0,0,0-.39-.52,4.58,4.58,0,0,0-.56-.75,4.3,4.3,0,0,0-.72-.48,4.66,4.66,0,0,0-.68-.4,3.78,3.78,0,0,0-1-.2,3.38,3.38,0,0,0-.57-.12h-12.6a37.16,37.16,0,0,1-37.12-37.12Z" style="fill:#231f20"/><path d="M189,130.14c8.26,0,13.4-6,13.4-14.07,0-8.26-5.36-14.06-13.18-14.06s-13.4,5.8-13.4,14.06C175.79,124.11,181.15,130.14,189,130.14Z" style="fill:#231f20"/><path d="M255.89,130.14c8.26,0,13.4-6,13.4-14.07,0-8.26-5.36-14.06-13.18-14.06s-13.4,5.8-13.4,14.06C242.71,124.11,248.07,130.14,255.89,130.14Z" style="fill:#231f20"/><path d="M322.81,130.14c8.26,0,13.4-6,13.4-14.07,0-8.26-5.36-14.06-13.18-14.06s-13.39,5.8-13.39,14.06C309.64,124.11,315,130.14,322.81,130.14Z" style="fill:#231f20"/></svg>