<?xml version="1.0" ?><!DOCTYPE svg  PUBLIC '-//W3C//DTD SVG 1.1//EN'  'http://www.w3.org/Graphics/SVG/1.1/DTD/svg11.dtd'><svg enable-background="new 0 0 512 512" height="512px" id="Achievement" version="1.1" viewBox="0 0 512 512" width="512px" xml:space="preserve" xmlns="http://www.w3.org/2000/svg" xmlns:xlink="http://www.w3.org/1999/xlink"><g><path d="M471.909,217.5H351.421c-3.711,0-5.921,4.132-5.921,7.865v266.604c0,3.713,2.21,6.531,5.921,6.531h120.488   c3.711,0,5.591-2.818,5.591-6.531V225.365C477.5,221.632,475.62,217.5,471.909,217.5z"/><path d="M318.5,366.648c0-3.729-2.641-7.148-6.368-7.148h-121.5c-3.728,0-7.132,3.42-7.132,7.148v126.5   c0,3.727,3.404,6.352,7.132,6.352h121.5c3.728,0,6.368-2.625,6.368-6.352V366.648z"/><path d="M158.5,435.648c0-3.729-2.64-7.148-6.368-7.148h-121.5c-3.728,0-7.132,3.42-7.132,7.148v56.5   c0,3.727,3.404,6.352,7.132,6.352h121.5c3.728,0,6.368-2.625,6.368-6.352V435.648z"/><path d="M59.5,395.459c3.416,0,7-2.771,7-6.188v-30.756c0-45.203,35.901-83.016,81.104-83.016h40.838   c3.418,0,6.058-1.734,6.058-5.15v-41.471c0-47.924,39.12-88.378,87.044-88.378h0.956v14.757c0,2.164,1.125,4.08,3.133,4.887   c0.641,0.258,1.222,0.383,1.882,0.383c1.406,0,2.735-0.566,3.753-1.633l18.589-19.477c1.949-2.041,1.939-5.238-0.012-7.277   l-18.613-19.479c-1.498-1.566-3.591-2.055-5.597-1.25c-2.01,0.805-3.135,2.723-3.135,4.887V129.5h-0.956   c-54.748,0-101.044,44.63-101.044,99.378V264.5h-32.896c-52.027,0-95.104,41.99-95.104,94.016v30.756   C52.5,392.688,56.084,395.459,59.5,395.459z"/><path d="M410.5,40.318c3.416,0,7-2.77,7-6.188V19.107c0-3.418-3.584-6.188-7-6.188s-7,2.77-7,6.188V34.13   C403.5,37.548,407.084,40.318,410.5,40.318z"/><path d="M439.237,46.416c0.902,0.465,1.867,0.684,2.816,0.684c2.248,0,4.416-1.23,5.512-3.367l6.957-13.578   c1.557-3.041,0.354-6.77-2.688-8.328c-3.041-1.563-6.77-0.355-8.328,2.686l-6.955,13.576   C434.993,41.13,436.196,44.859,439.237,46.416z"/><path d="M375.431,42.513c1.053,2.244,3.279,3.563,5.605,3.563c0.881,0,1.773-0.189,2.623-0.586   c3.094-1.453,4.426-5.137,2.975-8.232l-6.463-13.781c-1.449-3.092-5.133-4.42-8.229-2.975c-3.094,1.453-4.426,5.135-2.975,8.23   L375.431,42.513z"/><path d="M470.728,80.5h-12.385l0.875-14.082c0.234-3.814-2.797-6.918-6.619-6.918h-83.877c-3.822,0-6.854,3.104-6.617,6.918   l0.873,14.082h-10.352c-9.676,0-17.529,8.062-17.529,17.737c0,5.152,2.25,10.139,6.211,13.467l15.365,13.056l0.002,0.055   l9.945,8.416c-0.002-0.012-0.004-0.021-0.006-0.032l0.006,0.005l0.027,0.036c3.271,16.344,15.336,29.375,30.951,34.113   c3.102,0.943,5.238,3.791,5.465,7.025l2.299,23.269c0.092,1.301-0.939,1.853-2.244,1.853h-19.854c-1.244,0-1.765,2.121-1.765,3.361   v4.5c0,1.244,0.521,1.139,1.765,1.139h54.793c1.242,0,1.442,0.105,1.442-1.139v-4.5c0-1.24-0.2-3.361-1.442-3.361h-19.852   c-1.305,0-2.336-0.55-2.246-1.851l2.301-23.544c0.227-3.234,2.361-5.862,5.463-6.806c14.928-4.533,26.605-16.799,30.465-31.799   h0.025l0.006-0.089c-0.002,0.012-0.022-0.016-0.026-0.006l10.307-8.79v-0.014l17.525-14.799c3.938-3.328,6.196-8.418,6.196-13.571   C488.222,88.558,480.38,80.5,470.728,80.5z M347.112,104.947c-1.912-1.619-3.016-4.213-3.016-6.709   c0-4.705,3.826-8.737,8.529-8.737h1.861h0.027h9.023h-0.027h0.021l1.879,30.704l-9.502-7.802L347.112,104.947z M410.405,137.337   c-13.773,0-24.939-11.168-24.939-24.941c0-13.777,11.166-24.943,24.939-24.943c13.777,0,24.943,11.166,24.943,24.943   C435.349,126.169,424.183,137.337,410.405,137.337z M476.218,104.947l-10.912,9.225l-9.506,7.814l1.988-32.485h0.029h-0.027h9.023   h0.027h3.887c4.703,0,8.506,4.032,8.506,8.737C479.233,100.733,478.13,103.328,476.218,104.947z"/><circle cx="410.405" cy="112.396" r="12.375"/></g></svg>