<svg viewBox="0 0 512 512" xml:space="preserve" xmlns="http://www.w3.org/2000/svg" enable-background="new 0 0 512 512"><path d="m496.851 212.213-48.806-12.201a198.741 198.741 0 0 0-16.666-40.205l25.89-43.151a19.999 19.999 0 0 0-3.008-24.432l-34.485-34.485a20 20 0 0 0-24.432-3.008l-43.151 25.89a198.741 198.741 0 0 0-40.205-16.666L299.787 15.15A20 20 0 0 0 280.384 0h-48.769a20 20 0 0 0-19.403 15.149l-12.201 48.805a198.741 198.741 0 0 0-40.205 16.666l-43.151-25.89a19.999 19.999 0 0 0-24.432 3.008L57.738 92.223a20.001 20.001 0 0 0-3.008 24.432l25.89 43.151a198.741 198.741 0 0 0-16.666 40.205l-48.806 12.201A20 20 0 0 0 0 231.615v48.769a20 20 0 0 0 15.149 19.403l48.806 12.201a198.741 198.741 0 0 0 16.666 40.205l-25.89 43.151a19.999 19.999 0 0 0 3.008 24.432l34.485 34.485a20 20 0 0 0 24.432 3.008l43.151-25.89a198.741 198.741 0 0 0 40.205 16.666l12.201 48.805a20 20 0 0 0 19.403 15.149h48.769a20 20 0 0 0 19.403-15.149l12.201-48.805a198.741 198.741 0 0 0 40.205-16.666l43.151 25.89a19.999 19.999 0 0 0 24.432-3.008l34.485-34.485a20.001 20.001 0 0 0 3.008-24.432l-25.89-43.151a198.741 198.741 0 0 0 16.666-40.205l48.806-12.201a20 20 0 0 0 15.149-19.403v-48.769a20 20 0 0 0-15.15-19.402zM256 336c-44.112 0-80-35.888-80-80s35.888-80 80-80 80 35.888 80 80-35.888 80-80 80z" fill="#ffffff" class="fill-000000"></path></svg>