<?xml version="1.0" ?><!DOCTYPE svg  PUBLIC '-//W3C//DTD SVG 1.1//EN'  'http://www.w3.org/Graphics/SVG/1.1/DTD/svg11.dtd'><svg height="8.4666mm" style="shape-rendering:geometricPrecision; text-rendering:geometricPrecision; image-rendering:optimizeQuality; fill-rule:evenodd; clip-rule:evenodd" version="1.1" viewBox="0 0 846.66 846.66" width="8.4666mm" xml:space="preserve" xmlns="http://www.w3.org/2000/svg" xmlns:xlink="http://www.w3.org/1999/xlink"><defs><style type="text/css">
   <![CDATA[
    .fil0 {fill:black;fill-rule:nonzero}
   ]]>
  </style></defs><g id="Layer_x0020_1"><path class="fil0" d="M27.72 429.31l117.86 0 0 -384.44c0,-11.49 9.31,-20.8 20.8,-20.8l513.9 0c11.49,0 20.8,9.31 20.8,20.8l0 384.44 117.86 0c11.49,0 20.8,9.32 20.8,20.81l0 351.65c0,11.49 -9.31,20.8 -20.8,20.8 -263.74,0 -527.48,0 -791.22,0 -11.49,0 -20.8,-9.31 -20.8,-20.8l0 -351.65c0,-11.49 9.31,-20.81 20.8,-20.81zm175.07 351.65l0 -99.44 -33.29 0 0 99.44 33.29 0zm-74.9 0l0 -120.24c0,-11.49 9.32,-20.81 20.81,-20.81l74.9 0c11.49,0 20.8,9.32 20.8,20.81l0 120.24 53.01 0 0 -213.87 -248.88 0 0 213.87 79.36 0zm549.27 0l0 -99.44 -33.29 0 0 99.44 33.29 0zm-74.9 0l0 -120.24c0,-11.49 9.32,-20.81 20.8,-20.81l74.9 0c11.49,0 20.81,9.32 20.81,20.81l0 120.24 79.36 0 0 -213.87 -248.88 0 0 213.87 53.01 0zm-158.13 -520.27l0 202.37c0,27.37 -41.6,27.37 -41.6,0l0 -202.37 -63.51 0 0 520.27 168.62 0c0,-173.42 0,-346.84 0,-520.27l-63.51 0zm-284.35 264.79l0 -54.56 -111.25 0 0 54.56 111.25 0zm41.61 -54.56l0 54.56 96.02 0 0 -54.56 -96.02 0zm443.88 54.56l0 -54.56 -96.02 0 0 54.56 96.02 0zm41.61 -54.56l0 54.56 111.25 0 0 -54.56 -111.25 0zm-499.69 -41.61l110.22 0 0 -189.42c0,-11.49 9.32,-20.81 20.81,-20.81l210.22 0c11.49,0 20.81,9.32 20.81,20.81l0 189.42 110.22 0 0 -363.63 -472.28 0 0 363.63z"/></g></svg>